<svg width="20" height="20" viewBox="0 0 20 20" fill="none" xmlns="http://www.w3.org/2000/svg">
<path d="M13.75 6.25H0V5H13.75C14.4394 5 15 4.43937 15 3.75C15 3.06062 14.4394 2.5 13.75 2.5C13.0606 2.5 12.5 3.06062 12.5 3.75H11.25C11.25 2.37125 12.3713 1.25 13.75 1.25C15.1287 1.25 16.25 2.37125 16.25 3.75C16.25 5.12875 15.1287 6.25 13.75 6.25Z" fill="#24609B"/>
<path d="M18.125 11.25H17.5V10H18.125C18.47 10 18.75 9.71937 18.75 9.375C18.75 9.03062 18.47 8.75 18.125 8.75H11.25V7.5H18.125C19.1588 7.5 20 8.34125 20 9.375C20 10.4088 19.1588 11.25 18.125 11.25Z" fill="#24609B"/>
<path d="M14.375 13.75H13.75V12.5H14.375C14.72 12.5 15 12.2194 15 11.875C15 11.5306 14.72 11.25 14.375 11.25H0V10H14.375C15.4087 10 16.25 10.8412 16.25 11.875C16.25 12.9088 15.4087 13.75 14.375 13.75Z" fill="#24609B"/>
<path d="M10 17.5C8.62125 17.5 7.5 16.3788 7.5 15H8.75C8.75 15.6894 9.31063 16.25 10 16.25C10.6894 16.25 11.25 15.6894 11.25 15C11.25 14.3106 10.6894 13.75 10 13.75H2.5V12.5H10C11.3787 12.5 12.5 13.6212 12.5 15C12.5 16.3788 11.3787 17.5 10 17.5Z" fill="#24609B"/>
<path d="M2.5 7.5H1.25V8.75H2.5V7.5Z" fill="#24609B"/>
<path d="M10 7.5H3.75V8.75H10V7.5Z" fill="#24609B"/>
<path d="M1.25 12.5H0V13.75H1.25V12.5Z" fill="#24609B"/>
</svg>
