<?xml version="1.0" encoding="UTF-8"?>
<svg version="1.1" xmlns="http://www.w3.org/2000/svg" width="425" height="413">
<path d="M0 0 C140.25 0 280.5 0 425 0 C425 136.29 425 272.58 425 413 C284.75 413 144.5 413 0 413 C0 276.71 0 140.42 0 0 Z " fill="#FEFEFF" transform="translate(0,0)"/>
<path d="M0 0 C1.06863281 0.680625 2.13726562 1.36125 3.23828125 2.0625 C17.22364404 11.28139833 30.05116529 23.82935082 39 38 C39.35465332 38.53737793 39.70930664 39.07475586 40.07470703 39.62841797 C46.60326753 49.53927821 51.28007797 59.74227984 55 71 C55.38744385 72.1144751 55.38744385 72.1144751 55.78271484 73.25146484 C65.57362021 102.36007175 62.11683953 138.05000629 48.83984375 165.40234375 C48.23189881 166.60427655 47.61863614 167.80353486 47 169 C46.69336426 169.5995752 46.38672852 170.19915039 46.07080078 170.81689453 C41.31222999 179.97140786 35.51799766 188.03712601 29 196 C28.36964844 196.7734375 27.73929688 197.546875 27.08984375 198.34375 C23.17045741 202.9863033 18.90693072 207.39030384 14 211 C13.34 211 12.68 211 12 211 C12 211.66 12 212.32 12 213 C9.88783937 214.62639443 7.78931894 216.10647116 5.5625 217.5625 C4.54965942 218.22523926 4.54965942 218.22523926 3.51635742 218.90136719 C-28.32814703 239.39712956 -63.86453676 245.45230128 -101 238 C-105.45359088 236.92562859 -109.712709 235.60989797 -114 234 C-114.98871094 233.63003906 -115.97742188 233.26007813 -116.99609375 232.87890625 C-143.65779229 222.30437042 -165.53753147 204.02404294 -181 180 C-181.680625 178.95457031 -182.36125 177.90914062 -183.0625 176.83203125 C-200.2706439 148.70074912 -205.20075558 113.29081263 -197.99609375 81.20703125 C-192.80736987 60.43216202 -183.22990821 40.15530805 -169 24 C-168.34 24 -167.68 24 -167 24 C-166.73832031 23.40058594 -166.47664063 22.80117187 -166.20703125 22.18359375 C-164.92779812 19.86938236 -163.73749558 18.70340555 -161.6875 17.0625 C-159.53529481 15.3262266 -157.59169768 13.58286585 -155.65234375 11.6015625 C-115.39583443 -27.88420363 -45.85127809 -30.35670825 0 0 Z " fill="#C4E2FF" transform="translate(281,101)"/>
<path d="M0 0 C0.85851562 0.42023438 1.71703125 0.84046875 2.6015625 1.2734375 C20.09506853 10.1926617 35.07207857 25.59123572 41.34765625 44.41796875 C42.29620308 48.17239662 42.41318417 51.14361439 42 55 C41.34 55.99 40.68 56.98 40 58 C37.7578125 58.328125 37.7578125 58.328125 35.125 58.25 C34.26132812 58.23453125 33.39765625 58.2190625 32.5078125 58.203125 C30 58 30 58 28.10766602 57.5 C24.38658513 56.61725082 20.62070247 56.77359847 16.8125 56.75 C15.59336914 56.7190625 15.59336914 56.7190625 14.34960938 56.6875 C5.81648147 56.63319211 -1.16895766 58.80246779 -8 64 C-8.82951172 64.59554687 -8.82951172 64.59554687 -9.67578125 65.203125 C-23.89321119 76.17355874 -27.27626561 94.62562796 -30.12548828 111.29345703 C-31.50293117 118.94604958 -33.12558788 124.18274185 -39.68359375 128.84375 C-44.15589285 131.42356478 -47.98286727 131.70064968 -53.0625 131.5 C-53.89394531 131.4801001 -54.72539062 131.4602002 -55.58203125 131.43969727 C-78.93147491 130.59587631 -103.09861038 120.99934285 -121 106 C-123 103 -123 103 -123.52734375 100.58984375 C-123 98 -123 98 -120.25390625 95.75390625 C-119.03412127 95.00573345 -117.80280239 94.27614411 -116.5625 93.5625 C-115.27312015 92.77916796 -113.98405768 91.99531327 -112.6953125 91.2109375 C-112.06270508 90.83420898 -111.43009766 90.45748047 -110.77832031 90.06933594 C-101.13125047 84.7869223 -101.13125047 84.7869223 -94 77 C-93.34 77 -92.68 77 -92 77 C-91.70996094 76.41605469 -91.41992188 75.83210938 -91.12109375 75.23046875 C-90.43850884 73.87243396 -89.74578302 72.51935494 -89.03515625 71.17578125 C-84.62815957 62.73346231 -82.52791498 54.36171636 -81 45 C-77.90485694 26.24553145 -71.58653497 12.46442047 -55.9375 0.75 C-38.86911611 -9.95136854 -17.56488021 -9.32143462 0 0 Z " fill="#FEFEFF" transform="translate(269,146)"/>
</svg>
