<svg width="20" height="20" viewBox="0 0 20 20" fill="none" xmlns="http://www.w3.org/2000/svg">
<path d="M15 11.25H2.5V12.5H13.75H15C16.3813 12.5 17.5 13.6187 17.5 15C17.5 16.38 16.3813 17.5 15 17.5H13.75V18.75H15C17.07 18.75 18.75 17.07 18.75 15C18.75 12.93 17.07 11.25 15 11.25ZM18.75 6.25C18.75 4.17875 17.07 2.5 15 2.5V3.75C16.3813 3.75 17.5 4.86875 17.5 6.25C17.5 7.63 16.3813 8.75 15 8.75H3.75V10H15C17.07 10 18.75 8.32125 18.75 6.25ZM15 6.25H6.25V7.5H15V6.25ZM10 13.75H5V15H10C10.69 15 11.25 15.5587 11.25 16.25C11.25 16.9412 10.6912 17.5 10 17.5V18.75C11.3813 18.75 12.5 17.63 12.5 16.25C12.5 14.87 11.3813 13.75 10 13.75Z" fill="#24609B"/>
</svg>
